Coordinates
version=1
nRows=18
nColumns=26
inDegrees=yes

Units are S.I. units (second, meters, Newtons, ...)
Angles are in degrees.

endheader
time	pelvis_tilt	pelvis_list	pelvis_rotation	pelvis_tx	pelvis_ty	pelvis_tz	hip_flexion_r	hip_adduction_r	hip_rotation_r	knee_angle_r	knee_angle_r_beta	ankle_angle_r	subtalar_angle_r	mtp_angle_r	hip_flexion_l	hip_adduction_l	hip_rotation_l	knee_angle_l	knee_angle_l_beta	ankle_angle_l	subtalar_angle_l	mtp_angle_l	lumbar_extension	lumbar_bending	lumbar_rotation
      0.00000000	     -4.28970346	     -1.72853381	      6.11105297	      2.54015689	      0.94719562	      1.19804462	     20.17079055	     -2.05279214	     -4.85547282	      7.31007704	      0.12758491	      5.13655003	    -11.29807035	      0.00000000	     -9.15967875	     -2.69989706	     -2.45129872	      7.33392637	      0.12800116	      9.78294264	     -8.93894403	      0.00000000	      0.00000000	      0.00000000	      0.00000000
      0.00666667	     -4.25243728	     -1.92785816	      6.12313390	      2.54111480	      0.94864419	      1.20015952	     19.60575225	     -1.61302149	     -4.86810529	      6.83070156	      0.11921823	      5.00328582	    -11.11812960	      0.00000000	     -9.01679807	     -3.15692965	     -2.57189974	      7.97179502	      0.13913407	      9.09932345	     -8.96568227	      0.00000000	      0.00000000	      0.00000000	      0.00000000
      0.01333333	     -4.34386473	     -1.88119736	      6.14420724	      2.54192876	      0.94959696	      1.20160494	     19.20786043	     -1.50658166	     -4.72071280	      6.44289912	      0.11244980	      5.16438734	    -11.04891777	      0.00000000	     -8.73706702	     -3.30030847	     -2.76814151	      8.63909962	      0.15078073	      8.41583378	     -8.88566424	      0.00000000	      0.00000000	      0.00000000	      0.00000000
      0.02000000	     -4.41386324	     -1.77156423	      6.21255868	      2.54268369	      0.95047177	      1.20301363	     18.80839548	     -1.49629942	     -4.72818762	      6.10515937	      0.10655513	      5.31576679	    -11.06113474	      0.00000000	     -8.49110524	     -3.37968575	     -2.73786315	      9.28183423	      0.16199857	      7.79368218	     -8.77756985	      0.00000000	      0.00000000	      0.00000000	      0.00000000
      0.02666667	     -4.55044518	     -1.71718971	      6.20479561	      2.54348164	      0.95121614	      1.20455162	     18.36918742	     -1.37725756	     -4.49381210	      5.51325400	      0.09622443	      5.31599750	    -11.02091943	      0.00000000	     -8.05339009	     -3.53829624	     -3.23167987	     10.15157764	      0.17717845	      7.30599752	     -8.43040773	      0.00000000	      0.00000000	      0.00000000	      0.00000000
      0.03333333	     -4.67994218	     -1.64496903	      6.26144966	      2.54421527	      0.95189348	      1.20592478	     17.99174185	     -1.32961355	     -4.50390205	      5.07801778	      0.08862813	      5.46695282	    -10.95404409	      0.00000000	     -7.66700657	     -3.65754972	     -3.35360790	     10.92311561	      0.19064433	      6.74229473	     -8.35152957	      0.00000000	      0.00000000	      0.00000000	      0.00000000
      0.04000000	     -4.83743770	     -1.55513308	      6.35982953	      2.54485592	      0.95248530	      1.20731050	     17.63323461	     -1.30998817	     -4.52547179	      4.62556827	      0.08073140	      5.59892362	    -10.88949737	      0.00000000	     -7.21912211	     -3.76685787	     -3.40620590	     11.73306990	      0.20478070	      6.16952700	     -8.27150150	      0.00000000	      0.00000000	      0.00000000	      0.00000000
      0.04666667	     -4.99821506	     -1.44147279	      6.41589831	      2.54551438	      0.95299421	      1.20874625	     17.29184173	     -1.31164086	     -4.54189708	      4.19739903	      0.07325843	      5.71450885	    -10.88399988	      0.00000000	     -6.75580645	     -3.84690453	     -3.55912844	     12.58439321	      0.21963910	      5.68113261	     -8.17062793	      0.00000000	      0.00000000	      0.00000000	      0.00000000
      0.05333333	     -5.10435158	     -1.35044897	      6.49443525	      2.54618042	      0.95358742	      1.20994995	     16.90854277	     -1.29555159	     -4.53683427	      3.81524229	      0.06658854	      5.82022854	    -10.83338004	      0.00000000	     -6.38041262	     -3.93549798	     -3.53150123	     13.35999894	      0.23317597	      5.08533087	     -8.05909604	      0.00000000	      0.00000000	      0.00000000	      0.00000000
      0.06000000	     -5.27814718	     -1.30625526	      6.57149846	      2.54681752	      0.95393794	      1.21130548	     16.57855620	     -1.21682910	     -4.55154803	      3.33720006	      0.05824513	      5.91422927	    -10.68497426	      0.00000000	     -5.83182827	     -4.11095495	     -3.80817377	     14.30464213	      0.24966310	      4.56603063	     -8.00180451	      0.00000000	      0.00000000	      0.00000000	      0.00000000
      0.06666667	     -5.29989561	     -1.16814663	      6.65025571	      2.54733716	      0.95443221	      1.21248515	     16.16075930	     -1.24656928	     -4.54668108	      3.03566035	      0.05298227	      6.12738873	    -10.66588943	      0.00000000	     -5.51773645	     -4.15245485	     -3.73762792	     15.12656922	      0.26400844	      4.01478769	     -7.88160791	      0.00000000	      0.00000000	      0.00000000	      0.00000000
      0.07333333	     -5.51026592	     -1.16166968	      6.59462124	      2.54790974	      0.95455048	      1.21378266	     15.94113956	     -1.12750946	     -4.45111420	      2.66115970	      0.04644600	      6.25510673	    -10.53485724	      0.00000000	     -4.88260122	     -4.36036463	     -4.22844231	     16.17805243	      0.28236028	      3.59879915	     -7.73925521	      0.00000000	      0.00000000	      0.00000000	      0.00000000
      0.08000000	     -5.57645159	     -1.14102970	      6.60828563	      2.54842507	      0.95486749	      1.21501712	     15.58482043	     -1.02382737	     -4.47155931	      2.33315033	      0.04072116	      6.44097214	    -10.36339649	      0.00000000	     -4.43363129	     -4.56938548	     -4.57127098	     17.14069274	      0.29916152	      3.04691422	     -7.39845978	      0.00000000	      0.00000000	      0.00000000	      0.00000000
      0.08666667	     -5.60340833	     -1.13452753	      6.61819917	      2.54892214	      0.95509515	      1.21604391	     15.24640630	     -0.93451008	     -4.76624301	      2.11164961	      0.03685524	      6.82149389	     -9.75919008	      0.00000000	     -4.00264721	     -4.82465789	     -4.94744236	     18.18682367	      0.31741995	      2.70598125	     -6.99583133	      0.00000000	      0.00000000	      0.00000000	      0.00000000
      0.09333333	     -5.63097014	     -1.15209238	      6.53232116	      2.54936171	      0.95524184	      1.21726099	     14.93313619	     -0.78884002	     -4.80713521	      1.90401156	      0.03323127	      7.18721680	     -9.35868056	      0.00000000	     -3.55989711	     -5.08355197	     -5.36980358	     19.24355731	      0.33586343	      2.29857851	     -6.74029476	      0.00000000	      0.00000000	      0.00000000	      0.00000000
      0.10000000	     -5.60820776	     -1.17684137	      6.46818506	      2.54978513	      0.95541700	      1.21835865	     14.56744954	     -0.64608843	     -4.93221224	      1.70667626	      0.02978712	      7.48712566	     -8.94673700	      0.00000000	     -3.15340949	     -5.34772707	     -5.74534735	     20.30734916	      0.35443011	      1.79628386	     -6.60881542	      0.00000000	      0.00000000	      0.00000000	      0.00000000
      0.10666667	     -5.71385193	     -1.18750254	      6.29960495	      2.55000067	      0.95543958	      1.21951834	     14.33361841	     -0.48971045	     -4.30678020	      1.44427927	      0.02520743	      7.25443988	     -9.67731065	      0.00000000	     -2.62620642	     -5.51732767	     -5.98202760	     21.32132716	      0.37212736	      0.93627873	     -6.99676268	      0.00000000	      0.00000000	      0.00000000	      0.00000000
      0.11333333	     -5.64189698	     -1.27805718	      6.18545881	      2.55038413	      0.95556233	      1.22065548	     13.97882508	     -0.27369780	     -4.51078708	      1.34698203	      0.02350927	      7.57913278	     -9.18177776	      0.00000000	     -2.23085766	     -5.89725812	     -6.48376190	     22.46233966	      0.39204178	      0.33254910	     -6.78605360	      0.00000000	      0.00000000	      0.00000000	      0.00000000
